<?xml version="1.0" encoding="UTF-8" standalone="no"?>
<svg
   viewBox="0 0 1000 500"
   version="1.1"
   id="svg2"
   sodipodi:docname="leaf.svg"
   inkscape:version="1.4.3 (0d15f75042, 2025-12-25)"
   xmlns:inkscape="http://www.inkscape.org/namespaces/inkscape"
   xmlns:sodipodi="http://sodipodi.sourceforge.net/DTD/sodipodi-0.dtd"
   xmlns="http://www.w3.org/2000/svg"
   xmlns:svg="http://www.w3.org/2000/svg">
  <defs
     id="defs2" />
  <sodipodi:namedview
     id="namedview2"
     pagecolor="#ffffff"
     bordercolor="#000000"
     borderopacity="0.25"
     inkscape:showpageshadow="2"
     inkscape:pageopacity="0.0"
     inkscape:pagecheckerboard="0"
     inkscape:deskcolor="#d1d1d1"
     inkscape:zoom="0.644"
     inkscape:cx="500"
     inkscape:cy="249.2236"
     inkscape:window-width="1908"
     inkscape:window-height="1143"
     inkscape:window-x="0"
     inkscape:window-y="0"
     inkscape:window-maximized="1"
     inkscape:current-layer="svg2" />
  <g
     fill="#167364"
     id="g2">
    <path
       d="M109.7 257.6s433.6 432.9 665.7 0c-217.3-467.1-665.7 0-665.7 0Z"
       id="path1"
       style="fill:#f5c2e7;fill-opacity:1.0" />
    <path
       d="M890.1 254.4a6 6 0 0 0-7.4-3.9c-.4.1-37.8 11.2-106.5 2.3-249.7-32.5-438.6-8.9-440.5-8.6a5.8 5.8 0 0 0-5.1 6.7 6 6 0 0 0 6.7 5.2c1.9-.2 189.4-23.7 437.4 8.6a407 407 0 0 0 53.2 3.6c37.3 0 57.2-6 58.3-6.3a6 6 0 0 0 3.9-7.4Z"
       fill="#6DA89E"
       id="path2"
       style="fill:#f8d3ee;fill-opacity:1" />
  </g>
</svg>
